<svg version="1.1" id="Layer_1" xmlns="http://www.w3.org/2000/svg" xmlns:xlink="http://www.w3.org/1999/xlink" x="0px" y="0px"
	 width="100%" viewBox="0 0 411 410" enable-background="new 0 0 411 410" xml:space="preserve">
<path fill="#3f3fe9" opacity="1.000000" stroke="none" 
	d="
M412.000000,186.000000 
	C412.000000,260.881378 412.000000,335.762756 412.000000,411.000000 
	C394.980774,411.000000 377.959045,411.000000 360.468658,410.532623 
	C360.000000,405.451721 360.000000,400.838196 360.000000,396.143860 
	C362.586426,396.023315 364.677429,395.925842 366.761841,395.828674 
	C366.761841,394.093018 366.761841,392.689240 366.761841,390.912689 
	C364.449463,390.912689 362.369507,390.912689 360.232758,390.912689 
	C360.232758,388.114807 360.232758,385.704559 360.232758,382.922302 
	C362.535370,382.922302 364.610199,382.922302 366.776917,382.922302 
	C366.776917,375.129089 366.776917,367.716553 366.776917,359.940002 
	C364.472931,359.940002 362.386963,359.940002 359.952759,359.940002 
	C359.952759,358.160767 359.952759,356.743378 359.952759,355.188660 
	C358.519562,355.188660 357.443512,355.188660 356.291656,355.188660 
	C356.052490,356.887115 355.837036,358.417206 355.636841,359.839081 
	C326.313934,359.839081 297.374542,359.839081 268.257904,359.839081 
	C268.047028,358.160736 267.852631,356.613495 267.637085,354.897980 
	C265.937836,355.043274 264.524353,355.164154 263.162903,355.280579 
	C263.006927,357.034760 262.881805,358.441986 262.724274,360.213654 
	C259.312073,360.213654 256.237091,360.213654 253.300720,360.213654 
	C253.300720,368.027710 253.300720,375.435333 253.300720,383.213684 
	C256.685638,383.213684 259.769867,383.213684 262.700562,383.213684 
	C262.700562,386.012817 262.700562,388.422546 262.700562,391.190796 
	C259.311829,391.190796 256.221558,391.190796 252.940674,391.190796 
	C253.039062,392.987610 253.116165,394.395508 253.213745,396.177490 
	C256.648865,396.177490 259.727325,396.177490 263.000000,396.177490 
	C263.000000,401.382355 263.000000,406.191193 263.000000,411.000000 
	C246.645767,411.000000 230.291550,411.000000 213.468658,410.531342 
	C213.000000,335.399414 213.000000,260.736115 213.000000,186.000000 
	C279.812225,186.000000 345.906128,186.000000 412.000000,186.000000 
M253.000000,248.500000 
	C253.000000,256.931366 253.000000,265.362732 253.000000,273.713806 
	C291.310883,273.713806 329.045776,273.713806 366.712372,273.713806 
	C366.712372,254.355728 366.712372,235.285217 366.712372,216.286163 
	C328.689178,216.286163 290.954285,216.286163 253.000000,216.286163 
	C253.000000,226.880630 253.000000,237.190323 253.000000,248.500000 
z"/>
<path fill="#3f3fe9" opacity="1.000000" stroke="none" 
	d="
M87.000000,411.000000 
	C58.377392,411.000000 29.754782,411.000000 1.000000,411.000000 
	C1.000000,344.979156 1.000000,278.958252 1.468657,212.468658 
	C68.270500,212.000000 134.603683,212.000000 201.000000,212.000000 
	C201.000000,278.818481 201.000000,344.909241 201.000000,411.000000 
	C174.312439,411.000000 147.624878,411.000000 120.465530,410.605530 
	C115.123810,397.656708 114.151924,384.853394 115.805298,371.429810 
	C117.516487,357.536682 121.254890,344.700287 129.229645,333.134644 
	C129.850723,332.233917 129.311417,330.533112 129.311417,329.204163 
	C128.858704,329.069519 128.405991,328.934845 127.953270,328.800201 
	C126.527206,330.459381 125.093872,332.112335 123.676926,333.779266 
	C121.880562,335.892517 120.332520,338.288879 118.260246,340.080719 
	C113.810730,343.928253 108.934830,342.774658 106.848610,337.320953 
	C105.253487,333.151031 104.373756,328.713013 102.949806,324.470093 
	C102.053787,321.800201 100.740631,319.270325 99.614601,316.677673 
	C98.971855,316.873077 98.329109,317.068512 97.686356,317.263916 
	C98.116547,320.887756 98.977394,324.526123 98.855484,328.131287 
	C98.734215,331.717743 102.367470,335.629211 97.268211,339.998566 
	C92.109100,333.335968 87.129356,326.904999 82.149612,320.474060 
	C81.444962,320.930298 80.740311,321.386566 80.035660,321.842834 
	C83.825562,328.722778 87.615463,335.602692 91.405373,342.482635 
	C90.955894,342.798157 90.506416,343.113708 90.056938,343.429230 
	C84.293274,338.535370 78.529610,333.641510 72.765945,328.747650 
	C73.711334,338.367767 84.264626,341.239990 86.319435,350.425018 
	C82.376701,348.491302 78.433975,346.557556 74.491249,344.623840 
	C74.204178,345.097717 73.917114,345.571564 73.630043,346.045441 
	C74.789726,347.033691 75.852516,348.175232 77.127472,348.981140 
	C80.797180,351.300873 84.470581,353.637726 88.291901,355.689667 
	C95.512451,359.566925 99.413734,365.297729 98.999619,373.661407 
	C98.497147,383.809509 95.541733,393.194305 90.555107,402.041138 
	C88.991989,404.814301 88.164322,408.002045 87.000000,411.000000 
M167.335556,278.269043 
	C167.482285,278.372559 167.628998,278.476074 167.337021,279.099945 
	C163.376602,283.747833 159.416183,288.395721 154.940765,293.648010 
	C176.815094,292.612854 182.540665,274.797394 179.202087,263.071136 
	C177.238647,263.716888 175.215149,264.223419 173.320602,265.032074 
	C163.299606,269.309418 154.947067,275.184845 152.356995,287.120728 
	C152.316559,287.660400 152.276138,288.200073 152.235718,288.739746 
	C152.675278,288.424835 153.114838,288.109894 154.084991,287.356720 
	C158.365051,284.211182 162.645111,281.065674 167.335556,278.269043 
M151.185394,354.000488 
	C145.692001,351.479431 140.198593,348.958374 133.787201,346.015991 
	C138.951080,362.386292 153.431610,368.832916 169.724152,361.720917 
	C163.034988,347.835968 149.074524,339.399231 139.376999,342.544220 
	C143.578629,345.957825 148.186783,349.701691 152.345383,353.742340 
	C152.206070,353.855621 152.066757,353.968903 151.185394,354.000488 
M124.742348,281.654602 
	C124.855637,281.793915 124.968933,281.933197 125.005516,282.879608 
	C122.815086,295.087494 120.624649,307.295380 118.321533,320.131317 
	C139.217743,308.472168 156.098267,282.489838 129.581451,246.208115 
	C104.496254,268.867126 100.506203,299.103516 111.504303,316.227051 
	C113.691605,303.577026 117.907852,291.950775 124.742348,281.654602 
M85.754868,310.710907 
	C80.225166,300.829926 74.695465,290.948914 69.165764,281.067932 
	C77.196663,287.959290 85.622414,294.581146 91.259941,305.052673 
	C94.388763,281.788452 75.717834,260.514526 51.204559,252.615173 
	C50.790688,260.563965 49.500355,268.233795 50.218418,275.710754 
	C51.206234,285.996552 55.312725,295.135071 64.098274,301.725525 
	C70.435272,306.479187 77.531982,309.074371 85.754868,310.710907 
M50.431271,323.998901 
	C44.811337,322.588745 39.191399,321.178589 33.571465,319.768402 
	C33.649635,319.341125 33.727806,318.913818 33.805981,318.486542 
	C43.740822,319.131195 53.675663,319.775818 63.708687,320.426849 
	C48.219440,302.787567 23.345957,302.905823 7.099482,312.049561 
	C12.915518,322.063965 20.377066,330.451813 31.434746,334.718445 
	C40.529343,338.227570 58.008335,335.459595 62.896523,328.514526 
	C59.022316,327.022217 55.141949,325.527527 50.431271,323.998901 
M156.631134,333.000000 
	C176.488129,333.941650 186.029495,320.979065 193.853729,305.560638 
	C174.745224,297.575470 149.749130,302.709839 138.700699,320.224487 
	C142.431320,319.275513 145.565994,318.346619 148.758057,317.701630 
	C152.243454,316.997345 155.765289,316.362091 159.302292,316.057648 
	C162.479080,315.784180 165.697968,316.000000 167.873505,316.000000 
	C159.022308,319.464081 149.351440,323.248932 139.680588,327.033783 
	C139.707901,327.710846 139.735229,328.387909 139.762543,329.064972 
	C145.075058,330.376648 150.387558,331.688324 156.631134,333.000000 
M88.000107,255.227966 
	C89.065369,259.231903 90.130638,263.235809 91.195900,267.239746 
	C91.662460,267.178162 92.129021,267.116577 92.595581,267.055023 
	C94.265511,260.436127 95.935440,253.817245 97.605362,247.198364 
	C97.896049,247.313950 98.186729,247.429535 98.477417,247.545120 
	C98.477417,254.967514 98.477417,262.389893 98.477417,269.911591 
	C112.254852,259.233246 112.725418,242.801117 97.522133,228.257919 
	C91.626877,235.937378 87.553520,244.307953 88.000107,255.227966 
M66.589203,359.931183 
	C67.397705,358.493591 68.206215,357.056030 69.419342,354.898987 
	C61.478264,356.613953 54.356094,358.152069 47.233925,359.690186 
	C47.116962,359.426270 47.000004,359.162323 46.883041,358.898407 
	C53.361710,355.930145 59.840378,352.961853 65.924515,350.174347 
	C54.949417,343.071106 35.052689,353.106140 29.081791,363.544769 
	C46.694717,373.663330 57.002129,370.246674 66.589203,359.931183 
M38.193199,296.999969 
	C40.036896,296.560150 41.880596,296.120300 44.540516,295.485748 
	C38.138588,291.463654 32.616108,287.994110 27.093632,284.524536 
	C27.213457,284.239197 27.333282,283.953857 27.453108,283.668549 
	C33.220531,285.618530 38.987957,287.568512 44.738049,289.512665 
	C39.791168,278.879211 28.977364,273.837799 14.291809,275.334320 
	C13.990299,286.850464 24.750946,296.973114 38.193199,296.999969 
z"/>
<path fill="#000000" opacity="0.000000" stroke="none" 
	d="
M201.460632,411.000000 
	C201.000000,344.909241 201.000000,278.818481 201.000000,212.000000 
	C134.603683,212.000000 68.270500,212.000000 1.468657,212.000000 
	C1.000000,208.638718 1.000000,205.277420 1.383062,201.111160 
	C3.358185,200.537460 4.950137,200.970093 6.542324,200.970947 
	C69.504471,201.005081 132.466644,201.000000 195.428802,201.000000 
	C196.902481,201.000000 198.376175,201.000000 199.908813,201.000000 
	C199.297806,197.274719 198.870850,193.916733 198.184341,190.612640 
	C194.601791,173.370178 185.118195,159.988327 171.587448,148.974915 
	C154.898026,135.390533 135.591904,128.000137 114.571991,126.267281 
	C96.661011,124.790710 78.589294,125.368149 61.263817,131.960159 
	C32.408306,142.939133 9.870330,159.852097 2.893656,192.028168 
	C2.798225,192.468292 1.654468,192.681107 1.000001,193.000000 
	C1.000000,183.312439 1.000000,173.624878 1.369077,163.466980 
	C10.272923,151.926270 19.493357,141.571960 31.520613,134.083023 
	C32.255768,133.625275 32.930405,132.410538 32.937252,131.542542 
	C33.030060,119.780800 32.999596,108.018082 32.999596,95.043266 
	C24.454712,99.846458 16.681431,104.218460 8.905386,108.585533 
	C6.273847,110.063416 3.635325,111.528862 0.999999,113.000000 
	C1.000000,108.975456 1.000000,104.950912 1.366700,100.461716 
	C11.948312,94.305687 22.163223,88.614319 33.116287,82.511673 
	C33.116287,78.871193 33.116287,74.094658 33.116287,69.225136 
	C36.861309,69.225136 40.267712,69.225136 43.985886,69.225136 
	C43.985886,72.891479 43.985886,76.339630 43.985886,78.867119 
	C61.078403,75.954910 78.010735,73.070000 95.179626,70.144783 
	C95.179626,66.233932 95.179626,62.286320 95.179626,58.218040 
	C98.842087,58.218040 102.246696,58.218040 106.019119,58.218040 
	C106.019119,62.525105 106.019119,66.622452 106.019119,70.176468 
	C123.253647,72.979851 140.038223,75.710052 157.222382,78.505241 
	C157.222382,75.305481 157.222382,72.225113 157.222382,69.313736 
	C161.040039,69.313736 164.447540,69.313736 167.999969,69.313736 
	C167.999969,70.612198 168.159210,71.628220 167.974823,72.577507 
	C166.475235,80.297592 169.268463,84.494415 177.032928,87.276352 
	C185.378494,90.266495 192.978760,95.336761 201.000000,99.549683 
	C201.000000,66.633583 201.000000,33.816792 201.000000,1.000000 
	C204.692902,1.000000 208.385818,1.000000 212.539368,1.468657 
	C213.000000,43.477398 213.000000,85.017479 213.000000,127.418495 
	C222.301498,119.557198 230.811752,112.237198 239.463547,105.088539 
	C247.994858,98.039436 256.587280,91.058403 265.311401,84.250694 
	C270.731995,80.020836 273.921478,75.523911 273.236908,67.858299 
	C272.292236,57.280186 273.000000,46.554501 273.000000,35.892025 
	C273.000000,32.967953 273.000000,30.043884 273.000000,27.320103 
	C298.052185,27.320103 322.451599,27.320103 347.000000,27.320103 
	C347.000000,43.120621 346.975708,58.601551 347.043793,74.082077 
	C347.049561,75.391594 347.243469,77.177887 348.080261,77.928223 
	C353.305756,82.613808 358.700104,87.114723 364.111664,91.588326 
	C375.293518,100.832077 386.477173,110.074722 397.751282,119.205193 
	C402.379456,122.953377 407.243347,126.410477 412.000000,130.000000 
	C412.000000,133.361282 412.000000,136.722580 411.717346,140.828064 
	C396.951050,129.569839 382.467438,117.567398 367.294067,104.993385 
	C367.294067,128.766495 367.294067,151.281250 367.294067,174.000000 
	C382.391510,174.000000 397.195740,174.000000 412.000000,174.000000 
	C412.000000,177.692902 412.000000,181.385818 412.000000,185.539368 
	C345.906128,186.000000 279.812225,186.000000 213.000000,186.000000 
	C213.000000,260.736115 213.000000,335.399414 213.000000,410.531342 
	C209.307098,411.000000 205.614182,411.000000 201.460632,411.000000 
M244.458221,174.000000 
	C247.229630,174.000000 250.001038,174.000000 252.572266,174.000000 
	C252.572266,150.991470 252.572266,128.528397 252.572266,105.962074 
	C251.831711,106.141106 251.442413,106.121780 251.220703,106.305122 
	C241.421295,114.408730 231.575592,122.458321 221.885086,130.690521 
	C218.715485,133.383133 213.705048,136.349670 213.411438,139.546783 
	C212.371155,150.874496 213.005920,162.356033 213.005920,174.000000 
	C223.530060,174.000000 233.498199,174.000000 244.458221,174.000000 
M146.351990,122.033615 
	C149.701767,123.468842 153.051544,124.904068 156.808197,126.513618 
	C156.808197,114.366966 156.808197,102.926163 156.808197,91.301476 
	C140.367355,86.250572 123.621613,83.176674 106.208267,82.914391 
	C106.208267,93.528999 106.208267,103.609169 106.208267,112.386856 
	C119.654305,115.657791 132.599625,118.806915 146.351990,122.033615 
M44.000000,100.584114 
	C44.000000,109.007683 44.000000,117.431252 44.000000,125.005638 
	C61.010132,120.805069 77.750778,116.671051 94.760216,112.470657 
	C94.760216,103.429161 94.760216,93.360054 94.760216,83.000282 
	C93.724022,83.000282 92.908340,82.891304 92.130341,83.016502 
	C78.735535,85.172058 65.262939,86.955254 51.984730,89.683228 
	C43.865227,91.351357 44.000019,92.007454 44.000000,100.584114 
M201.000000,141.499939 
	C201.000000,133.516922 201.122101,125.530571 200.903641,117.553535 
	C200.856262,115.823318 200.075378,113.421715 198.796356,112.534485 
	C192.740585,108.333717 186.508774,104.351524 180.108490,100.696259 
	C176.472672,98.619797 172.392090,97.322090 168.000183,95.456329 
	C168.000183,107.677391 167.929977,118.975784 168.097748,130.270630 
	C168.116623,131.542328 169.229630,133.067856 170.260391,134.011124 
	C177.645401,140.769318 185.307327,147.233627 192.520233,154.166931 
	C195.489258,157.020859 197.567413,160.801575 200.050797,164.160736 
	C200.367203,164.027573 200.683594,163.894394 201.000000,163.761230 
	C201.000000,156.674103 201.000000,149.586975 201.000000,141.499939 
M332.000000,89.519379 
	C332.000000,101.184853 331.911530,112.851738 332.096771,124.514275 
	C332.124115,126.234940 333.020386,128.383926 334.253967,129.557861 
	C337.545288,132.690140 341.236755,135.402390 344.774109,138.275589 
	C349.251678,141.912506 353.734070,145.543472 359.000000,149.814163 
	C359.000000,133.499496 358.815857,118.235405 359.122833,102.981201 
	C359.204834,98.906761 357.433960,96.511238 354.686951,94.263924 
	C353.307373,93.135277 351.855438,92.095207 350.472992,90.969910 
	C344.616211,86.202499 338.773193,81.418167 332.000000,75.884094 
	C332.000000,80.993790 332.000000,84.762154 332.000000,89.519379 
M323.000000,102.497581 
	C323.000000,92.169807 323.097656,81.840202 322.904205,71.516052 
	C322.871826,69.788635 322.017914,67.607841 320.779755,66.461662 
	C317.370605,63.305706 313.556030,60.587700 310.146790,57.890244 
	C307.769073,59.685078 305.680511,61.009354 303.901489,62.666069 
	C301.478363,64.922615 297.398010,67.365280 297.309570,69.845177 
	C296.719482,86.387184 297.003357,102.960373 297.003357,120.291550 
	C301.768127,116.467346 305.893250,113.156509 310.229095,109.676544 
	C314.450989,113.094780 318.536804,116.402840 323.000000,120.016434 
	C323.000000,114.107002 323.000000,108.801491 323.000000,102.497581 
M280.048706,82.436089 
	C276.538361,85.329086 272.917999,88.100769 269.552643,91.153572 
	C266.874146,93.583260 262.450165,96.271935 262.338745,98.990631 
	C261.662720,115.482559 262.001801,132.016098 262.001801,149.342117 
	C270.061890,142.746872 277.401215,136.655853 284.845978,130.696548 
	C287.414978,128.640137 288.102875,126.191376 288.067413,122.983032 
	C287.911255,108.855568 288.008881,94.725365 287.983978,80.596214 
	C287.981873,79.403801 287.753235,78.211792 287.580688,76.544853 
	C284.926117,78.647545 282.791779,80.338165 280.048706,82.436089 
M313.963348,123.441887 
	C312.634827,122.563026 311.306305,121.684174 309.886871,120.745178 
	C308.760315,121.812378 307.945831,122.969627 306.831635,123.577194 
	C299.240631,127.716492 295.155884,133.545410 296.944580,142.591995 
	C297.324860,144.515305 297.000000,146.578003 297.000000,148.576492 
	C297.000000,156.997498 297.000000,165.418518 297.000000,173.693268 
	C306.024200,173.693268 314.427246,173.693268 323.000000,173.693268 
	C323.000000,163.744644 322.597290,154.080032 323.120850,144.465851 
	C323.582550,135.987564 323.134979,128.375626 313.963348,123.441887 
M338.000000,46.521477 
	C338.000000,43.082699 338.000000,39.643925 338.000000,36.281502 
	C319.033844,36.281502 300.630524,36.281502 282.465698,36.281502 
	C282.465698,47.369644 282.465698,58.171604 282.465698,69.706612 
	C292.011292,61.792984 300.911987,54.413975 310.122162,46.778423 
	C319.168365,54.160355 328.283051,61.598179 338.000000,69.527473 
	C338.000000,61.466434 338.000000,54.491665 338.000000,46.521477 
M332.000275,171.322266 
	C332.777100,172.214325 333.536072,173.862778 334.333496,173.881607 
	C342.439331,174.072861 350.551422,173.998444 359.000000,173.998444 
	C359.000000,170.769608 358.843445,167.965714 359.042816,165.187332 
	C359.253723,162.248322 358.562836,160.200821 355.955688,158.292175 
	C351.221069,154.826035 346.974762,150.700623 342.419434,146.979156 
	C339.278809,144.413391 335.960999,142.064484 332.000000,139.073135 
	C332.000000,150.373962 332.000000,160.361099 332.000275,171.322266 
M288.000000,154.506836 
	C288.000000,149.679016 288.000000,144.851212 288.000000,139.161163 
	C280.875214,144.943787 274.678223,149.887344 268.588562,154.959763 
	C266.268799,156.891998 262.965363,158.788879 262.292297,161.289230 
	C261.230225,165.234802 262.009705,169.676086 262.009705,173.689941 
	C271.074097,173.689941 279.456055,173.689941 288.000000,173.689941 
	C288.000000,167.422119 288.000000,161.463379 288.000000,154.506836 
z"/>
<path fill="#3f3fe9" opacity="1.000000" stroke="none" 
	d="
M200.531342,1.000000 
	C201.000000,33.816792 201.000000,66.633583 201.000000,99.549683 
	C192.978760,95.336761 185.378494,90.266495 177.032928,87.276352 
	C169.268463,84.494415 166.475235,80.297592 167.974823,72.577507 
	C168.159210,71.628220 167.999969,70.612198 167.999969,69.313736 
	C164.447540,69.313736 161.040039,69.313736 157.222382,69.313736 
	C157.222382,72.225113 157.222382,75.305481 157.222382,78.505241 
	C140.038223,75.710052 123.253647,72.979851 106.019119,70.176468 
	C106.019119,66.622452 106.019119,62.525105 106.019119,58.218040 
	C102.246696,58.218040 98.842087,58.218040 95.179626,58.218040 
	C95.179626,62.286320 95.179626,66.233932 95.179626,70.144783 
	C78.010735,73.070000 61.078403,75.954910 43.985886,78.867119 
	C43.985886,76.339630 43.985886,72.891479 43.985886,69.225136 
	C40.267712,69.225136 36.861309,69.225136 33.116287,69.225136 
	C33.116287,74.094658 33.116287,78.871193 33.116287,82.511673 
	C22.163223,88.614319 11.948312,94.305687 1.366700,99.998528 
	C1.000000,67.048340 1.000000,34.096680 1.000000,1.000000 
	C67.354156,1.000000 133.708420,1.000000 200.531342,1.000000 
M101.442749,42.000000 
	C99.363457,42.000000 97.284164,42.000000 95.239609,42.000000 
	C95.239609,44.595924 95.239609,46.648357 95.239609,48.805553 
	C98.860275,48.805553 102.239159,48.805553 106.203140,48.805553 
	C104.914749,46.225105 108.849060,41.579468 101.442749,42.000000 
M160.615082,53.000019 
	C159.510681,53.000019 158.406281,53.000019 157.188599,53.000019 
	C157.188599,55.171963 157.188599,56.894703 157.188599,58.691055 
	C160.891922,58.691055 164.398666,58.691055 168.062485,58.691055 
	C167.959656,56.644993 167.872849,54.917397 167.776489,53.000000 
	C165.464966,53.000000 163.510986,53.000000 160.615082,53.000019 
M33.062828,58.343548 
	C36.674812,58.616753 40.286793,58.889954 44.118412,59.179768 
	C43.970600,56.580826 43.872528,54.856457 43.781960,53.264038 
	C39.965633,53.264038 36.580929,53.264038 33.004513,53.264038 
	C33.004513,54.819489 33.004513,56.112122 33.062828,58.343548 
z"/>
<path fill="#3f3fe9" opacity="1.000000" stroke="none" 
	d="
M412.000000,129.531342 
	C407.243347,126.410477 402.379456,122.953377 397.751282,119.205193 
	C386.477173,110.074722 375.293518,100.832077 364.111664,91.588326 
	C358.700104,87.114723 353.305756,82.613808 348.080261,77.928223 
	C347.243469,77.177887 347.049561,75.391594 347.043793,74.082077 
	C346.975708,58.601551 347.000000,43.120621 347.000000,27.320103 
	C322.451599,27.320103 298.052185,27.320103 273.000000,27.320103 
	C273.000000,30.043884 273.000000,32.967953 273.000000,35.892025 
	C273.000000,46.554501 272.292236,57.280186 273.236908,67.858299 
	C273.921478,75.523911 270.731995,80.020836 265.311401,84.250694 
	C256.587280,91.058403 247.994858,98.039436 239.463547,105.088539 
	C230.811752,112.237198 222.301498,119.557198 213.000000,127.418495 
	C213.000000,85.017479 213.000000,43.477398 213.000000,1.468657 
	C279.244781,1.000000 345.489532,1.000000 412.000000,1.000000 
	C412.000000,43.687195 412.000000,86.374939 412.000000,129.531342 
z"/>
<path fill="#3f3fe9" opacity="1.000000" stroke="none" 
	d="
M1.000001,193.444168 
	C1.654468,192.681107 2.798225,192.468292 2.893656,192.028168 
	C9.870330,159.852097 32.408306,142.939133 61.263817,131.960159 
	C78.589294,125.368149 96.661011,124.790710 114.571991,126.267281 
	C135.591904,128.000137 154.898026,135.390533 171.587448,148.974915 
	C185.118195,159.988327 194.601791,173.370178 198.184341,190.612640 
	C198.870850,193.916733 199.297806,197.274719 199.908813,201.000000 
	C198.376175,201.000000 196.902481,201.000000 195.428802,201.000000 
	C132.466644,201.000000 69.504471,201.005081 6.542324,200.970947 
	C4.950137,200.970093 3.358185,200.537460 1.383062,200.653091 
	C1.000000,198.629440 1.000000,196.258896 1.000001,193.444168 
z"/>
<path fill="#000000" opacity="0.000000" stroke="none" 
	d="
M263.416656,411.000000 
	C263.000000,406.191193 263.000000,401.382355 263.000000,396.177490 
	C259.727325,396.177490 256.648865,396.177490 253.213745,396.177490 
	C253.116165,394.395508 253.039062,392.987610 252.940674,391.190796 
	C256.221558,391.190796 259.311829,391.190796 262.700562,391.190796 
	C262.700562,388.422546 262.700562,386.012817 262.700562,383.213684 
	C259.769867,383.213684 256.685638,383.213684 253.300720,383.213684 
	C253.300720,375.435333 253.300720,368.027710 253.300720,360.213654 
	C256.237091,360.213654 259.312073,360.213654 262.724274,360.213654 
	C262.881805,358.441986 263.006927,357.034760 263.162903,355.280579 
	C264.524353,355.164154 265.937836,355.043274 267.637085,354.897980 
	C267.852631,356.613495 268.047028,358.160736 268.257904,359.839081 
	C297.374542,359.839081 326.313934,359.839081 355.636841,359.839081 
	C355.837036,358.417206 356.052490,356.887115 356.291656,355.188660 
	C357.443512,355.188660 358.519562,355.188660 359.952759,355.188660 
	C359.952759,356.743378 359.952759,358.160767 359.952759,359.940002 
	C362.386963,359.940002 364.472931,359.940002 366.776917,359.940002 
	C366.776917,367.716553 366.776917,375.129089 366.776917,382.922302 
	C364.610199,382.922302 362.535370,382.922302 360.232758,382.922302 
	C360.232758,385.704559 360.232758,388.114807 360.232758,390.912689 
	C362.369507,390.912689 364.449463,390.912689 366.761841,390.912689 
	C366.761841,392.689240 366.761841,394.093018 366.761841,395.828674 
	C364.677429,395.925842 362.586426,396.023315 360.000000,396.143860 
	C360.000000,400.838196 360.000000,405.451721 360.000000,410.532623 
	C358.933319,411.000000 357.866669,411.000000 356.399994,410.532562 
	C356.000000,405.472046 356.000000,400.878998 356.000000,396.303925 
	C326.397522,396.303925 297.287689,396.303925 268.000000,396.303925 
	C268.000000,401.404449 268.000000,406.202240 268.000000,411.000000 
	C266.611115,411.000000 265.222198,411.000000 263.416656,411.000000 
M271.667847,391.000000 
	C299.704041,391.000000 327.740204,391.000000 355.737549,391.000000 
	C355.737549,388.059906 355.737549,385.657867 355.737549,383.363098 
	C326.336517,383.363098 297.199280,383.363098 268.003754,383.363098 
	C268.003754,385.554016 267.738831,387.441040 268.126495,389.182800 
	C268.295471,389.941956 269.802856,390.403229 271.667847,391.000000 
z"/>
<path fill="#3f3fe9" opacity="1.000000" stroke="none" 
	d="
M412.000000,173.531342 
	C397.195740,174.000000 382.391510,174.000000 367.294067,174.000000 
	C367.294067,151.281250 367.294067,128.766495 367.294067,104.993385 
	C382.467438,117.567398 396.951050,129.569839 411.717346,141.286133 
	C412.000000,151.687561 412.000000,162.375122 412.000000,173.531342 
z"/>
<path fill="#000000" opacity="0.000000" stroke="none" 
	d="
M87.468658,411.000000 
	C88.164322,408.002045 88.991989,404.814301 90.555107,402.041138 
	C95.541733,393.194305 98.497147,383.809509 98.999619,373.661407 
	C99.413734,365.297729 95.512451,359.566925 88.291901,355.689667 
	C84.470581,353.637726 80.797180,351.300873 77.127472,348.981140 
	C75.852516,348.175232 74.789726,347.033691 73.630043,346.045441 
	C73.917114,345.571564 74.204178,345.097717 74.491249,344.623840 
	C78.433975,346.557556 82.376701,348.491302 86.319435,350.425018 
	C84.264626,341.239990 73.711334,338.367767 72.765945,328.747650 
	C78.529610,333.641510 84.293274,338.535370 90.056938,343.429230 
	C90.506416,343.113708 90.955894,342.798157 91.405373,342.482635 
	C87.615463,335.602692 83.825562,328.722778 80.035660,321.842834 
	C80.740311,321.386566 81.444962,320.930298 82.149612,320.474060 
	C87.129356,326.904999 92.109100,333.335968 97.268211,339.998566 
	C102.367470,335.629211 98.734215,331.717743 98.855484,328.131287 
	C98.977394,324.526123 98.116547,320.887756 97.686356,317.263916 
	C98.329109,317.068512 98.971855,316.873077 99.614601,316.677673 
	C100.740631,319.270325 102.053787,321.800201 102.949806,324.470093 
	C104.373756,328.713013 105.253487,333.151031 106.848610,337.320953 
	C108.934830,342.774658 113.810730,343.928253 118.260246,340.080719 
	C120.332520,338.288879 121.880562,335.892517 123.676926,333.779266 
	C125.093872,332.112335 126.527206,330.459381 127.953270,328.800201 
	C128.405991,328.934845 128.858704,329.069519 129.311417,329.204163 
	C129.311417,330.533112 129.850723,332.233917 129.229645,333.134644 
	C121.254890,344.700287 117.516487,357.536682 115.805298,371.429810 
	C114.151924,384.853394 115.123810,397.656708 119.996872,410.605530 
	C109.312439,411.000000 98.624878,411.000000 87.468658,411.000000 
z"/>
<path fill="#3f3fe9" opacity="1.000000" stroke="none" 
	d="
M0.999999,113.468658 
	C3.635325,111.528862 6.273847,110.063416 8.905386,108.585533 
	C16.681431,104.218460 24.454712,99.846458 32.999596,95.043266 
	C32.999596,108.018082 33.030060,119.780800 32.937252,131.542542 
	C32.930405,132.410538 32.255768,133.625275 31.520613,134.083023 
	C19.493357,141.571960 10.272923,151.926270 1.369077,162.998322 
	C1.000000,146.645767 1.000000,130.291550 0.999999,113.468658 
z"/>
<path fill="#3f3fe9" opacity="1.000000" stroke="none" 
	d="
M268.468658,411.000000 
	C268.000000,406.202240 268.000000,401.404449 268.000000,396.303925 
	C297.287689,396.303925 326.397522,396.303925 356.000000,396.303925 
	C356.000000,400.878998 356.000000,405.472046 356.000000,410.532562 
	C326.979095,411.000000 297.958221,411.000000 268.468658,411.000000 
z"/>
<path fill="#000000" opacity="0.000000" stroke="none" 
	d="
M253.000000,248.000000 
	C253.000000,237.190323 253.000000,226.880630 253.000000,216.286163 
	C290.954285,216.286163 328.689178,216.286163 366.712372,216.286163 
	C366.712372,235.285217 366.712372,254.355728 366.712372,273.713806 
	C329.045776,273.713806 291.310883,273.713806 253.000000,273.713806 
	C253.000000,265.362732 253.000000,256.931366 253.000000,248.000000 
M359.000000,237.503311 
	C359.000000,232.404831 359.000000,227.306335 359.000000,222.286804 
	C349.687866,222.286804 340.950226,222.286804 332.286011,222.286804 
	C332.286011,235.978134 332.286011,249.380814 332.286011,262.713013 
	C341.312531,262.713013 350.050201,262.713013 359.000000,262.713013 
	C359.000000,254.452164 359.000000,246.476990 359.000000,237.503311 
M270.542847,263.000000 
	C276.303833,263.000000 282.064819,263.000000 287.696594,263.000000 
	C287.696594,248.988800 287.696594,235.584579 287.696594,222.305542 
	C278.984375,222.305542 270.578430,222.305542 262.306519,222.305542 
	C262.306519,236.017105 262.306519,249.421158 262.306519,263.000000 
	C264.926392,263.000000 267.243134,263.000000 270.542847,263.000000 
M303.573364,222.000000 
	C301.468445,222.000000 299.363556,222.000000 297.262817,222.000000 
	C297.262817,235.929520 297.262817,249.332489 297.262817,262.735229 
	C305.932434,262.735229 314.336975,262.735229 322.734802,262.735229 
	C322.734802,249.065720 322.734802,235.662689 322.734802,222.000000 
	C316.502136,222.000000 310.531006,222.000000 303.573364,222.000000 
z"/>
<path fill="#000000" opacity="0.000000" stroke="none" 
	d="
M124.445572,281.205078 
	C117.907852,291.950775 113.691605,303.577026 111.504303,316.227051 
	C100.506203,299.103516 104.496254,268.867126 129.581451,246.208115 
	C156.098267,282.489838 139.217743,308.472168 118.321533,320.131317 
	C120.624649,307.295380 122.815086,295.087494 125.324265,282.379425 
	C125.683426,281.339569 125.723839,280.799927 125.764259,280.260254 
	C125.324699,280.575195 124.885139,280.890137 124.445572,281.205078 
z"/>
<path fill="#000000" opacity="0.000000" stroke="none" 
	d="
M85.391518,310.845398 
	C77.531982,309.074371 70.435272,306.479187 64.098274,301.725525 
	C55.312725,295.135071 51.206234,285.996552 50.218418,275.710754 
	C49.500355,268.233795 50.790688,260.563965 51.204559,252.615173 
	C75.717834,260.514526 94.388763,281.788452 91.259941,305.052673 
	C85.622414,294.581146 77.196663,287.959290 69.165764,281.067932 
	C74.695465,290.948914 80.225166,300.829926 85.391518,310.845398 
M68.420280,280.575897 
	C68.116196,280.152252 67.812111,279.728577 67.508018,279.304932 
	C67.586052,279.882996 67.664078,280.461029 68.420280,280.575897 
z"/>
<path fill="#000000" opacity="0.000000" stroke="none" 
	d="
M50.846428,324.015869 
	C55.141949,325.527527 59.022316,327.022217 62.896523,328.514526 
	C58.008335,335.459595 40.529343,338.227570 31.434746,334.718445 
	C20.377066,330.451813 12.915518,322.063965 7.099482,312.049561 
	C23.345957,302.905823 48.219440,302.787567 63.708687,320.426849 
	C53.675663,319.775818 43.740822,319.131195 33.805981,318.486542 
	C33.727806,318.913818 33.649635,319.341125 33.571465,319.768402 
	C39.191399,321.178589 44.811337,322.588745 50.846428,324.015869 
z"/>
<path fill="#000000" opacity="0.000000" stroke="none" 
	d="
M156.165604,333.000000 
	C150.387558,331.688324 145.075058,330.376648 139.762543,329.064972 
	C139.735229,328.387909 139.707901,327.710846 139.680588,327.033783 
	C149.351440,323.248932 159.022308,319.464081 167.873505,316.000000 
	C165.697968,316.000000 162.479080,315.784180 159.302292,316.057648 
	C155.765289,316.362091 152.243454,316.997345 148.758057,317.701630 
	C145.565994,318.346619 142.431320,319.275513 138.700699,320.224487 
	C149.749130,302.709839 174.745224,297.575470 193.853729,305.560638 
	C186.029495,320.979065 176.488129,333.941650 156.165604,333.000000 
z"/>
<path fill="#000000" opacity="0.000000" stroke="none" 
	d="
M88.000053,254.773056 
	C87.553520,244.307953 91.626877,235.937378 97.522133,228.257919 
	C112.725418,242.801117 112.254852,259.233246 98.477417,269.911591 
	C98.477417,262.389893 98.477417,254.967514 98.477417,247.545120 
	C98.186729,247.429535 97.896049,247.313950 97.605362,247.198364 
	C95.935440,253.817245 94.265511,260.436127 92.595581,267.055023 
	C92.129021,267.116577 91.662460,267.178162 91.195900,267.239746 
	C90.130638,263.235809 89.065369,259.231903 88.000053,254.773056 
z"/>
<path fill="#000000" opacity="0.000000" stroke="none" 
	d="
M66.318100,360.178406 
	C57.002129,370.246674 46.694717,373.663330 29.081791,363.544769 
	C35.052689,353.106140 54.949417,343.071106 65.924515,350.174347 
	C59.840378,352.961853 53.361710,355.930145 46.883041,358.898407 
	C47.000004,359.162323 47.116962,359.426270 47.233925,359.690186 
	C54.356094,358.152069 61.478264,356.613953 69.419342,354.898987 
	C68.206215,357.056030 67.397705,358.493591 66.318100,360.178406 
z"/>
<path fill="#000000" opacity="0.000000" stroke="none" 
	d="
M152.794952,353.445587 
	C148.186783,349.701691 143.578629,345.957825 139.376999,342.544220 
	C149.074524,339.399231 163.034988,347.835968 169.724152,361.720917 
	C153.431610,368.832916 138.951080,362.386292 133.787201,346.015991 
	C140.198593,348.958374 145.692001,351.479431 151.653046,354.321716 
	C152.660385,354.683411 153.200043,354.723846 153.739716,354.764282 
	C153.424789,354.324738 153.109863,353.885162 152.794952,353.445587 
z"/>
<path fill="#000000" opacity="0.000000" stroke="none" 
	d="
M152.917786,286.927490 
	C154.947067,275.184845 163.299606,269.309418 173.320602,265.032074 
	C175.215149,264.223419 177.238647,263.716888 179.202087,263.071136 
	C182.540665,274.797394 176.815094,292.612854 154.940765,293.648010 
	C159.416183,288.395721 163.376602,283.747833 167.779144,278.648499 
	C168.352875,277.861755 168.484497,277.526459 168.616119,277.191132 
	C168.052460,277.434113 167.488815,277.677124 166.925171,277.920135 
	C162.645111,281.065674 158.365051,284.211182 153.671326,287.351074 
	C153.144348,287.206085 153.031067,287.066803 152.917786,286.927490 
z"/>
<path fill="#000000" opacity="0.000000" stroke="none" 
	d="
M37.758095,297.000000 
	C24.750946,296.973114 13.990299,286.850464 14.291809,275.334320 
	C28.977364,273.837799 39.791168,278.879211 44.738049,289.512665 
	C38.987957,287.568512 33.220531,285.618530 27.453108,283.668549 
	C27.333282,283.953857 27.213457,284.239197 27.093632,284.524536 
	C32.616108,287.994110 38.138588,291.463654 44.540516,295.485748 
	C41.880596,296.120300 40.036896,296.560150 37.758095,297.000000 
z"/>
<path fill="#000000" opacity="0.000000" stroke="none" 
	d="
M153.406036,287.570190 
	C153.114838,288.109894 152.675278,288.424835 152.235718,288.739746 
	C152.276138,288.200073 152.316559,287.660400 152.637390,287.024109 
	C153.031067,287.066803 153.144348,287.206085 153.406036,287.570190 
z"/>
<path fill="#3f3fe9" opacity="1.000000" stroke="none" 
	d="
M243.962280,174.000000 
	C233.498199,174.000000 223.530060,174.000000 213.005920,174.000000 
	C213.005920,162.356033 212.371155,150.874496 213.411438,139.546783 
	C213.705048,136.349670 218.715485,133.383133 221.885086,130.690521 
	C231.575592,122.458321 241.421295,114.408730 251.220703,106.305122 
	C251.442413,106.121780 251.831711,106.141106 252.572266,105.962074 
	C252.572266,128.528397 252.572266,150.991470 252.572266,174.000000 
	C250.001038,174.000000 247.229630,174.000000 243.962280,174.000000 
z"/>
<path fill="#3f3fe9" opacity="1.000000" stroke="none" 
	d="
M145.948456,121.994827 
	C132.599625,118.806915 119.654305,115.657791 106.208267,112.386856 
	C106.208267,103.609169 106.208267,93.528999 106.208267,82.914391 
	C123.621613,83.176674 140.367355,86.250572 156.808197,91.301476 
	C156.808197,102.926163 156.808197,114.366966 156.808197,126.513618 
	C153.051544,124.904068 149.701767,123.468842 145.948456,121.994827 
z"/>
<path fill="#3f3fe9" opacity="1.000000" stroke="none" 
	d="
M44.000000,100.100189 
	C44.000019,92.007454 43.865227,91.351357 51.984730,89.683228 
	C65.262939,86.955254 78.735535,85.172058 92.130341,83.016502 
	C92.908340,82.891304 93.724022,83.000282 94.760216,83.000282 
	C94.760216,93.360054 94.760216,103.429161 94.760216,112.470657 
	C77.750778,116.671051 61.010132,120.805069 44.000000,125.005638 
	C44.000000,117.431252 44.000000,109.007683 44.000000,100.100189 
z"/>
<path fill="#3f3fe9" opacity="1.000000" stroke="none" 
	d="
M201.000000,141.999893 
	C201.000000,149.586975 201.000000,156.674103 201.000000,163.761230 
	C200.683594,163.894394 200.367203,164.027573 200.050797,164.160736 
	C197.567413,160.801575 195.489258,157.020859 192.520233,154.166931 
	C185.307327,147.233627 177.645401,140.769318 170.260391,134.011124 
	C169.229630,133.067856 168.116623,131.542328 168.097748,130.270630 
	C167.929977,118.975784 168.000183,107.677391 168.000183,95.456329 
	C172.392090,97.322090 176.472672,98.619797 180.108490,100.696259 
	C186.508774,104.351524 192.740585,108.333717 198.796356,112.534485 
	C200.075378,113.421715 200.856262,115.823318 200.903641,117.553535 
	C201.122101,125.530571 201.000000,133.516922 201.000000,141.999893 
z"/>
<path fill="#3f3fe9" opacity="1.000000" stroke="none" 
	d="
M332.000000,89.024948 
	C332.000000,84.762154 332.000000,80.993790 332.000000,75.884094 
	C338.773193,81.418167 344.616211,86.202499 350.472992,90.969910 
	C351.855438,92.095207 353.307373,93.135277 354.686951,94.263924 
	C357.433960,96.511238 359.204834,98.906761 359.122833,102.981201 
	C358.815857,118.235405 359.000000,133.499496 359.000000,149.814163 
	C353.734070,145.543472 349.251678,141.912506 344.774109,138.275589 
	C341.236755,135.402390 337.545288,132.690140 334.253967,129.557861 
	C333.020386,128.383926 332.124115,126.234940 332.096771,124.514275 
	C331.911530,112.851738 332.000000,101.184853 332.000000,89.024948 
z"/>
<path fill="#3f3fe9" opacity="1.000000" stroke="none" 
	d="
M323.000000,102.996780 
	C323.000000,108.801491 323.000000,114.107002 323.000000,120.016434 
	C318.536804,116.402840 314.450989,113.094780 310.229095,109.676544 
	C305.893250,113.156509 301.768127,116.467346 297.003357,120.291550 
	C297.003357,102.960373 296.719482,86.387184 297.309570,69.845177 
	C297.398010,67.365280 301.478363,64.922615 303.901489,62.666069 
	C305.680511,61.009354 307.769073,59.685078 310.146790,57.890244 
	C313.556030,60.587700 317.370605,63.305706 320.779755,66.461662 
	C322.017914,67.607841 322.871826,69.788635 322.904205,71.516052 
	C323.097656,81.840202 323.000000,92.169807 323.000000,102.996780 
z"/>
<path fill="#3f3fe9" opacity="1.000000" stroke="none" 
	d="
M280.353088,82.232437 
	C282.791779,80.338165 284.926117,78.647545 287.580688,76.544853 
	C287.753235,78.211792 287.981873,79.403801 287.983978,80.596214 
	C288.008881,94.725365 287.911255,108.855568 288.067413,122.983032 
	C288.102875,126.191376 287.414978,128.640137 284.845978,130.696548 
	C277.401215,136.655853 270.061890,142.746872 262.001801,149.342117 
	C262.001801,132.016098 261.662720,115.482559 262.338745,98.990631 
	C262.450165,96.271935 266.874146,93.583260 269.552643,91.153572 
	C272.917999,88.100769 276.538361,85.329086 280.353088,82.232437 
z"/>
<path fill="#3f3fe9" opacity="1.000000" stroke="none" 
	d="
M314.213013,123.709229 
	C323.134979,128.375626 323.582550,135.987564 323.120850,144.465851 
	C322.597290,154.080032 323.000000,163.744644 323.000000,173.693268 
	C314.427246,173.693268 306.024200,173.693268 297.000000,173.693268 
	C297.000000,165.418518 297.000000,156.997498 297.000000,148.576492 
	C297.000000,146.578003 297.324860,144.515305 296.944580,142.591995 
	C295.155884,133.545410 299.240631,127.716492 306.831635,123.577194 
	C307.945831,122.969627 308.760315,121.812378 309.886871,120.745178 
	C311.306305,121.684174 312.634827,122.563026 314.213013,123.709229 
z"/>
<path fill="#3f3fe9" opacity="1.000000" stroke="none" 
	d="
M338.000000,47.019188 
	C338.000000,54.491665 338.000000,61.466434 338.000000,69.527473 
	C328.283051,61.598179 319.168365,54.160355 310.122162,46.778423 
	C300.911987,54.413975 292.011292,61.792984 282.465698,69.706612 
	C282.465698,58.171604 282.465698,47.369644 282.465698,36.281502 
	C300.630524,36.281502 319.033844,36.281502 338.000000,36.281502 
	C338.000000,39.643925 338.000000,43.082699 338.000000,47.019188 
z"/>
<path fill="#3f3fe9" opacity="1.000000" stroke="none" 
	d="
M332.000122,170.835251 
	C332.000000,160.361099 332.000000,150.373962 332.000000,139.073135 
	C335.960999,142.064484 339.278809,144.413391 342.419434,146.979156 
	C346.974762,150.700623 351.221069,154.826035 355.955688,158.292175 
	C358.562836,160.200821 359.253723,162.248322 359.042816,165.187332 
	C358.843445,167.965714 359.000000,170.769608 359.000000,173.998444 
	C350.551422,173.998444 342.439331,174.072861 334.333496,173.881607 
	C333.536072,173.862778 332.777100,172.214325 332.000122,170.835251 
z"/>
<path fill="#3f3fe9" opacity="1.000000" stroke="none" 
	d="
M288.000000,155.005737 
	C288.000000,161.463379 288.000000,167.422119 288.000000,173.689941 
	C279.456055,173.689941 271.074097,173.689941 262.009705,173.689941 
	C262.009705,169.676086 261.230225,165.234802 262.292297,161.289230 
	C262.965363,158.788879 266.268799,156.891998 268.588562,154.959763 
	C274.678223,149.887344 280.875214,144.943787 288.000000,139.161163 
	C288.000000,144.851212 288.000000,149.679016 288.000000,155.005737 
z"/>
<path fill="#000000" opacity="0.000000" stroke="none" 
	d="
M101.917397,42.000008 
	C108.849060,41.579468 104.914749,46.225105 106.203140,48.805553 
	C102.239159,48.805553 98.860275,48.805553 95.239609,48.805553 
	C95.239609,46.648357 95.239609,44.595924 95.239609,42.000000 
	C97.284164,42.000000 99.363457,42.000000 101.917397,42.000008 
z"/>
<path fill="#000000" opacity="0.000000" stroke="none" 
	d="
M161.086044,53.000008 
	C163.510986,53.000000 165.464966,53.000000 167.776489,53.000000 
	C167.872849,54.917397 167.959656,56.644993 168.062485,58.691055 
	C164.398666,58.691055 160.891922,58.691055 157.188599,58.691055 
	C157.188599,56.894703 157.188599,55.171963 157.188599,53.000019 
	C158.406281,53.000019 159.510681,53.000019 161.086044,53.000008 
z"/>
<path fill="#000000" opacity="0.000000" stroke="none" 
	d="
M33.033669,57.874153 
	C33.004513,56.112122 33.004513,54.819489 33.004513,53.264038 
	C36.580929,53.264038 39.965633,53.264038 43.781960,53.264038 
	C43.872528,54.856457 43.970600,56.580826 44.118412,59.179768 
	C40.286793,58.889954 36.674812,58.616753 33.033669,57.874153 
z"/>
<path fill="#3f3fe9" opacity="1.000000" stroke="none" 
	d="
M271.185120,390.999878 
	C269.802856,390.403229 268.295471,389.941956 268.126495,389.182800 
	C267.738831,387.441040 268.003754,385.554016 268.003754,383.363098 
	C297.199280,383.363098 326.336517,383.363098 355.737549,383.363098 
	C355.737549,385.657867 355.737549,388.059906 355.737549,391.000000 
	C327.740204,391.000000 299.704041,391.000000 271.185120,390.999878 
z"/>
<path fill="#3f3fe9" opacity="1.000000" stroke="none" 
	d="
M359.000000,238.002563 
	C359.000000,246.476990 359.000000,254.452164 359.000000,262.713013 
	C350.050201,262.713013 341.312531,262.713013 332.286011,262.713013 
	C332.286011,249.380814 332.286011,235.978134 332.286011,222.286804 
	C340.950226,222.286804 349.687866,222.286804 359.000000,222.286804 
	C359.000000,227.306335 359.000000,232.404831 359.000000,238.002563 
z"/>
<path fill="#3f3fe9" opacity="1.000000" stroke="none" 
	d="
M270.051361,263.000000 
	C267.243134,263.000000 264.926392,263.000000 262.306519,263.000000 
	C262.306519,249.421158 262.306519,236.017105 262.306519,222.305542 
	C270.578430,222.305542 278.984375,222.305542 287.696594,222.305542 
	C287.696594,235.584579 287.696594,248.988800 287.696594,263.000000 
	C282.064819,263.000000 276.303833,263.000000 270.051361,263.000000 
z"/>
<path fill="#3f3fe9" opacity="1.000000" stroke="none" 
	d="
M304.066589,222.000000 
	C310.531006,222.000000 316.502136,222.000000 322.734802,222.000000 
	C322.734802,235.662689 322.734802,249.065720 322.734802,262.735229 
	C314.336975,262.735229 305.932434,262.735229 297.262817,262.735229 
	C297.262817,249.332489 297.262817,235.929520 297.262817,222.000000 
	C299.363556,222.000000 301.468445,222.000000 304.066589,222.000000 
z"/>
<path fill="#3f3fe9" opacity="1.000000" stroke="none" 
	d="
M124.593964,281.429840 
	C124.885139,280.890137 125.324699,280.575195 125.764259,280.260254 
	C125.723839,280.799927 125.683426,281.339569 125.362617,281.975891 
	C124.968933,281.933197 124.855637,281.793915 124.593964,281.429840 
z"/>
<path fill="#3f3fe9" opacity="1.000000" stroke="none" 
	d="
M68.081192,280.807495 
	C67.664078,280.461029 67.586052,279.882996 67.508018,279.304932 
	C67.812111,279.728577 68.116196,280.152252 68.081192,280.807495 
z"/>
<path fill="#3f3fe9" opacity="1.000000" stroke="none" 
	d="
M152.570160,353.593964 
	C153.109863,353.885162 153.424789,354.324738 153.739716,354.764282 
	C153.200043,354.723846 152.660385,354.683411 152.024078,354.362549 
	C152.066757,353.968903 152.206070,353.855621 152.570160,353.593964 
z"/>
<path fill="#3f3fe9" opacity="1.000000" stroke="none" 
	d="
M167.130371,278.094604 
	C167.488815,277.677124 168.052460,277.434113 168.616119,277.191132 
	C168.484497,277.526459 168.352875,277.861755 167.998474,278.388306 
	C167.628998,278.476074 167.482285,278.372559 167.130371,278.094604 
z"/>
</svg>