<svg width="301" height="280" viewBox="0 0 301 280" fill="none" xmlns="http://www.w3.org/2000/svg">
<path d="M31.1289 228.942L31.2077 230.662L32.6626 229.741L90.5877 193.081L91.0784 192.77L91.0518 192.19L87.8865 123.097L87.8077 121.377L86.3528 122.297L28.4277 158.958L27.937 159.269L27.9636 159.849L31.1289 228.942Z" fill="#3F3FE9" stroke="black" stroke-width="2"/>
<path d="M150.854 225.438L152.402 226.26L152.322 224.509L149.313 158.835C149.2 156.363 147.789 154.134 145.603 152.973L87.5363 122.145L85.9882 121.323L86.0684 123.074L89.2337 192.168L89.2598 192.738L89.7637 193.005L150.854 225.438Z" fill="#6060ED" stroke="black" stroke-width="2"/>
<path d="M151.579 225.357L153.034 224.436L151.513 223.629L90.4226 191.196L89.9097 190.924L89.4189 191.234L31.4939 227.895L30.039 228.816L31.5598 229.623L92.6501 262.056L93.1631 262.328L93.6538 262.018L151.579 225.357Z" fill="#3031B0" stroke="black" stroke-width="2"/>
<path d="M151.129 225.244L151.208 226.964L152.663 226.043L210.588 189.382L211.079 189.072L211.052 188.492L207.887 119.398L207.808 117.678L206.353 118.599L148.428 155.26L147.937 155.57L147.964 156.15L151.129 225.244Z" fill="#3F3FE9" stroke="black" stroke-width="2"/>
<path d="M270.854 221.74L272.402 222.562L272.322 220.811L269.313 155.137C269.2 152.664 267.789 150.435 265.603 149.275L207.536 118.447L205.988 117.625L206.069 119.376L209.234 188.469L209.26 189.039L209.764 189.307L270.854 221.74Z" fill="#6060ED" stroke="black" stroke-width="2"/>
<path d="M271.579 221.659L273.034 220.738L271.513 219.931L210.423 187.498L209.91 187.225L209.419 187.536L151.494 224.197L150.039 225.117L151.56 225.925L212.65 258.358L213.163 258.63L213.654 258.319L271.579 221.659Z" fill="#3031B0" stroke="black" stroke-width="2"/>
<path d="M84.6953 54.6822L84.4499 54.8375L84.4632 55.1276L87.6285 124.221L87.6679 125.081L88.3953 124.621L146.32 87.96L146.566 87.8047L146.552 87.5146L143.387 18.4212L143.348 17.5612L142.62 18.0216L84.6953 54.6822Z" fill="#3F3FE9" stroke="black"/>
<path d="M207.089 120.298L207.863 120.709L207.823 119.834L204.814 54.1599C204.709 51.8638 203.399 49.794 201.369 48.7163L143.302 17.8887L142.528 17.4777L142.568 18.3532L145.733 87.4466L145.746 87.7315L145.998 87.8653L207.089 120.298Z" fill="#6060ED" stroke="black"/>
<path d="M148.885 156.916L149.141 157.052L149.387 156.897L207.312 120.236L208.039 119.776L207.279 119.372L146.188 86.9393L145.932 86.8032L145.686 86.9585L87.7614 123.619L87.034 124.079L87.7944 124.483L148.885 156.916Z" fill="#3031B0" stroke="black"/>
<path d="M87.129 124.244L87.2078 125.964L88.6627 125.043L146.588 88.3825L147.079 88.0719L147.052 87.4917L143.887 18.3983L143.808 16.6783L142.353 17.5991L84.4279 54.2597L83.9371 54.5703L83.9637 55.1504L87.129 124.244Z" fill="#3F3FE9" stroke="black" stroke-width="2"/>
<path d="M206.854 120.74L208.402 121.562L208.322 119.811L205.313 54.137C205.2 51.6643 203.789 49.4353 201.603 48.2746L143.536 17.447L141.988 16.6252L142.069 18.3761L145.234 87.4694L145.26 88.0394L145.764 88.3069L206.854 120.74Z" fill="#6060ED" stroke="black" stroke-width="2"/>
<path d="M207.579 120.659L209.034 119.738L207.513 118.931L146.423 86.4977L145.91 86.2254L145.419 86.536L87.494 123.197L86.0391 124.117L87.5599 124.925L148.65 157.358L149.163 157.63L149.654 157.319L207.579 120.659Z" fill="#3031B0" stroke="black" stroke-width="2"/>
</svg>
