<svg width="380" height="265" viewBox="0 0 380 265" fill="none" xmlns="http://www.w3.org/2000/svg">
<path d="M189.156 101.564L189.906 101.987L189.902 101.126L189.646 50.7521L189.644 50.4617L189.391 50.3191L145.118 25.3565L144.368 24.9336L144.372 25.7945L144.628 76.1684L144.63 76.4588L144.882 76.6014L189.156 101.564Z" fill="#3F3FE9" stroke="black"/>
<path d="M233.412 25.62L234.171 25.1818L233.408 24.7514L192.116 1.47004C190.114 0.34118 187.665 0.353626 185.674 1.50278L144.621 25.2025L143.862 25.6407L144.626 26.0711L188.899 51.0338L189.148 51.1739L189.395 51.0312L233.412 25.62Z" fill="#6060ED" stroke="black"/>
<path d="M233.527 25.3416L233.523 24.4807L232.777 24.9111L188.759 50.3224L188.508 50.4676L188.509 50.758L188.765 101.132L188.77 101.993L189.515 101.562L233.533 76.1511L233.784 76.0059L233.783 75.7155L233.527 25.3416Z" fill="#3031B0" stroke="black"/>
<path d="M46.4126 261.402L47.1626 261.825L47.1582 260.964L46.9022 210.59L46.9008 210.3L46.6478 210.157L2.37423 185.195L1.62429 184.772L1.62867 185.633L1.88464 236.007L1.88611 236.297L2.13906 236.44L46.4126 261.402Z" fill="#3F3FE9" stroke="black"/>
<path d="M90.6692 185.458L91.4282 185.02L90.6648 184.59L49.3731 161.308C47.371 160.179 44.9215 160.192 42.9309 161.341L1.878 185.041L1.11903 185.479L1.88241 185.909L46.156 210.872L46.4045 211.012L46.6516 210.869L90.6692 185.458Z" fill="white" stroke="black"/>
<path d="M90.7838 185.18L90.7794 184.319L90.0338 184.749L46.0162 210.161L45.7647 210.306L45.7662 210.596L46.0221 260.97L46.0265 261.831L46.7721 261.401L90.7897 235.989L91.0412 235.844L91.0397 235.554L90.7838 185.18Z" fill="white" stroke="black"/>
<path d="M190.011 262.257L190.761 262.68L190.756 261.819L190.5 211.445L190.499 211.155L190.246 211.012L145.972 186.049L145.222 185.627L145.227 186.488L145.483 236.861L145.484 237.152L145.737 237.294L190.011 262.257Z" fill="white" stroke="black"/>
<path d="M234.267 186.313L235.026 185.875L234.263 185.445L192.971 162.163C190.969 161.034 188.52 161.047 186.529 162.196L145.476 185.896L144.717 186.334L145.481 186.764L189.754 211.727L190.003 211.867L190.25 211.724L234.267 186.313Z" fill="white" stroke="black"/>
<path d="M234.382 186.035L234.377 185.174L233.632 185.604L189.614 211.015L189.363 211.161L189.364 211.451L189.62 261.825L189.624 262.686L190.37 262.255L234.388 236.844L234.639 236.699L234.638 236.409L234.382 186.035Z" fill="#3031B0" stroke="black"/>
<path d="M333.609 263.112L334.359 263.535L334.354 262.674L334.098 212.3L334.097 212.01L333.844 211.867L289.57 186.904L288.82 186.481L288.825 187.342L289.081 237.716L289.082 238.007L289.335 238.149L333.609 263.112Z" fill="white" stroke="black"/>
<path d="M377.865 187.168L378.624 186.73L377.861 186.299L336.569 163.018C334.567 161.889 332.118 161.901 330.127 163.051L289.074 186.75L288.315 187.189L289.078 187.619L333.352 212.582L333.601 212.722L333.848 212.579L377.865 187.168Z" fill="#6060ED" stroke="black"/>
<path d="M377.98 186.889L377.975 186.028L377.23 186.459L333.212 211.87L332.961 212.015L332.962 212.306L333.218 262.68L333.223 263.541L333.968 263.11L377.986 237.699L378.237 237.554L378.236 237.263L377.98 186.889Z" fill="white" stroke="black"/>
<path d="M190.045 99.0485C188.572 99.0485 187.378 100.242 187.378 101.715C187.378 103.188 188.572 104.382 190.045 104.382C191.518 104.382 192.712 103.188 192.712 101.715C192.712 100.242 191.518 99.0485 190.045 99.0485ZM189.691 160.192C189.887 160.387 190.203 160.387 190.398 160.192L193.58 157.01C193.776 156.815 193.776 156.498 193.58 156.303C193.385 156.107 193.069 156.107 192.873 156.303L190.045 159.131L187.216 156.303C187.021 156.107 186.705 156.107 186.509 156.303C186.314 156.498 186.314 156.815 186.509 157.01L189.691 160.192ZM189.545 101.715L189.545 102.684L190.545 102.684L190.545 101.715L189.545 101.715ZM189.545 104.621L189.545 106.559L190.545 106.559L190.545 104.621L189.545 104.621ZM189.545 108.496L189.545 110.434L190.545 110.434L190.545 108.496L189.545 108.496ZM189.545 112.371L189.545 114.309L190.545 114.309L190.545 112.371L189.545 112.371ZM189.545 116.246L189.545 118.183L190.545 118.183L190.545 116.246L189.545 116.246ZM189.545 120.121L189.545 122.058L190.545 122.058L190.545 120.121L189.545 120.121ZM189.545 123.996L189.545 125.933L190.545 125.933L190.545 123.996L189.545 123.996ZM189.545 127.871L189.545 129.808L190.545 129.808L190.545 127.871L189.545 127.871ZM189.545 131.745L189.545 133.683L190.545 133.683L190.545 131.745L189.545 131.745ZM189.545 135.62L189.545 137.558L190.545 137.558L190.545 135.62L189.545 135.62ZM189.545 139.495L189.545 141.433L190.545 141.433L190.545 139.495L189.545 139.495ZM189.545 143.37L189.545 145.307L190.545 145.307L190.545 143.37L189.545 143.37ZM189.545 147.245L189.545 149.182L190.545 149.182L190.545 147.245L189.545 147.245ZM189.545 151.12L189.545 153.057L190.545 153.057L190.545 151.12L189.545 151.12ZM189.545 154.995L189.545 156.932L190.545 156.932L190.545 154.995L189.545 154.995ZM189.545 158.87L189.545 159.838L190.545 159.838L190.545 158.87L189.545 158.87ZM190.045 96.3819C187.099 96.3819 184.712 98.7697 184.712 101.715C184.712 104.661 187.099 107.049 190.045 107.049C192.99 107.049 195.378 104.661 195.378 101.715C195.378 98.7697 192.99 96.3819 190.045 96.3819ZM189.338 160.545C189.728 160.936 190.362 160.936 190.752 160.545L197.116 154.181C197.507 153.791 197.507 153.158 197.116 152.767C196.725 152.377 196.092 152.377 195.702 152.767L190.045 158.424L184.388 152.767C183.998 152.377 183.364 152.377 182.974 152.767C182.583 153.158 182.583 153.791 182.974 154.181L189.338 160.545ZM189.045 101.715L189.045 102.684L191.045 102.684L191.045 101.715L189.045 101.715ZM189.045 104.621L189.045 106.559L191.045 106.559L191.045 104.621L189.045 104.621ZM189.045 108.496L189.045 110.434L191.045 110.434L191.045 108.496L189.045 108.496ZM189.045 112.371L189.045 114.309L191.045 114.309L191.045 112.371L189.045 112.371ZM189.045 116.246L189.045 118.183L191.045 118.183L191.045 116.246L189.045 116.246ZM189.045 120.121L189.045 122.058L191.045 122.058L191.045 120.121L189.045 120.121ZM189.045 123.996L189.045 125.933L191.045 125.933L191.045 123.996L189.045 123.996ZM189.045 127.871L189.045 129.808L191.045 129.808L191.045 127.871L189.045 127.871ZM189.045 131.745L189.045 133.683L191.045 133.683L191.045 131.745L189.045 131.745ZM189.045 135.62L189.045 137.558L191.045 137.558L191.045 135.62L189.045 135.62ZM189.045 139.495L189.045 141.433L191.045 141.433L191.045 139.495L189.045 139.495ZM189.045 143.37L189.045 145.307L191.045 145.307L191.045 143.37L189.045 143.37ZM189.045 147.245L189.045 149.182L191.045 149.182L191.045 147.245L189.045 147.245ZM189.045 151.12L189.045 153.057L191.045 153.057L191.045 151.12L189.045 151.12ZM189.045 154.995L189.045 156.932L191.045 156.932L191.045 154.995L189.045 154.995ZM189.045 158.87L189.045 159.838L191.045 159.838L191.045 158.87L189.045 158.87Z" fill="black"/>
<path d="M332.436 160.042C332.632 160.237 332.948 160.236 333.143 160.041L336.315 156.855C336.509 156.66 336.508 156.343 336.313 156.148C336.117 155.953 335.8 155.953 335.605 156.149L332.786 158.981L329.949 156.156C329.753 155.961 329.436 155.961 329.241 156.157C329.047 156.352 329.048 156.669 329.244 156.864L332.436 160.042ZM333.288 159.687L333.285 158.746L332.285 158.747L332.288 159.688L333.288 159.687ZM333.279 156.863L333.273 154.981L332.273 154.982L332.279 156.864L333.279 156.863ZM333.267 153.098L333.261 151.215L332.261 151.217L332.267 153.099L333.267 153.098ZM333.255 149.333L333.249 147.45L332.249 147.451L332.255 149.334L333.255 149.333ZM333.243 145.568L333.237 143.685L332.237 143.686L332.243 145.569L333.243 145.568ZM333.231 141.802L333.225 139.92L332.225 139.921L332.231 141.804L333.231 141.802ZM333.219 138.037L333.213 136.155L332.213 136.156L332.219 138.038L333.219 138.037ZM333.207 134.272L333.201 132.389L332.201 132.391L332.207 134.273L333.207 134.272ZM333.195 130.507L333.192 129.565L332.192 129.567L332.195 130.508L333.195 130.507ZM332.083 160.396C332.475 160.786 333.108 160.785 333.498 160.394L339.841 154.022C340.231 153.631 340.228 152.998 339.837 152.608C339.445 152.218 338.812 152.219 338.423 152.61L332.784 158.274L327.109 152.624C326.717 152.234 326.084 152.234 325.695 152.625C325.305 153.016 325.307 153.649 325.699 154.04L332.083 160.396ZM333.788 159.687L333.785 158.745L331.785 158.748L331.788 159.689L333.788 159.687ZM333.779 156.863L333.773 154.98L331.773 154.982L331.779 156.865L333.779 156.863ZM333.767 153.097L333.761 151.215L331.761 151.217L331.767 153.1L333.767 153.097ZM333.755 149.332L333.749 147.45L331.749 147.452L331.755 149.335L333.755 149.332ZM333.743 145.567L333.737 143.684L331.737 143.687L331.743 145.569L333.743 145.567ZM333.731 141.802L333.725 139.919L331.725 139.922L331.731 141.804L333.731 141.802ZM333.719 138.037L333.713 136.154L331.713 136.156L331.719 138.039L333.719 138.037ZM333.707 134.271L333.701 132.389L331.701 132.391L331.707 134.274L333.707 134.271ZM333.695 130.506L333.692 129.565L331.692 129.567L331.695 130.509L333.695 130.506Z" fill="black"/>
<path d="M45.3358 160.392C45.5317 160.587 45.8483 160.586 46.0429 160.391L49.2147 157.205C49.4094 157.009 49.4084 156.693 49.2125 156.498C49.0166 156.303 48.7 156.303 48.5054 156.499L45.686 159.33L42.8485 156.506C42.6527 156.311 42.3361 156.311 42.1414 156.506C41.9468 156.702 41.9478 157.018 42.1437 157.214L45.3358 160.392ZM46.1882 160.037L46.1852 159.096L45.1852 159.097L45.1882 160.038L46.1882 160.037ZM46.1792 157.213L46.1732 155.33L45.1732 155.332L45.1792 157.214L46.1792 157.213ZM46.1672 153.448L46.1612 151.565L45.1612 151.566L45.1672 153.449L46.1672 153.448ZM46.1552 149.683L46.1492 147.8L45.1492 147.801L45.1552 149.684L46.1552 149.683ZM46.1432 145.917L46.1372 144.035L45.1372 144.036L45.1432 145.919L46.1432 145.917ZM46.1312 142.152L46.1252 140.27L45.1252 140.271L45.1312 142.153L46.1312 142.152ZM46.1192 138.387L46.1132 136.504L45.1132 136.506L45.1192 138.388L46.1192 138.387ZM46.1072 134.622L46.1012 132.739L45.1012 132.74L45.1072 134.623L46.1072 134.622ZM46.0952 130.857L46.0922 129.915L45.0922 129.916L45.0952 130.858L46.0952 130.857ZM44.9834 160.746C45.3751 161.136 46.0083 161.135 46.3976 160.744L52.7413 154.372C53.1305 153.981 53.1285 153.348 52.7368 152.958C52.345 152.568 51.7118 152.569 51.3225 152.96L45.6837 158.623L40.0088 152.973C39.6171 152.583 38.9839 152.584 38.5946 152.975C38.2054 153.366 38.2074 153.999 38.5991 154.389L44.9834 160.746ZM46.6882 160.036L46.6852 159.095L44.6852 159.098L44.6882 160.039L46.6882 160.036ZM46.6792 157.212L46.6732 155.33L44.6732 155.332L44.6792 157.215L46.6792 157.212ZM46.6672 153.447L46.6612 151.565L44.6612 151.567L44.6672 153.45L46.6672 153.447ZM46.6552 149.682L46.6492 147.799L44.6492 147.802L44.6552 149.684L46.6552 149.682ZM46.6432 145.917L46.6372 144.034L44.6372 144.037L44.6432 145.919L46.6432 145.917ZM46.6312 142.152L46.6252 140.269L44.6252 140.271L44.6312 142.154L46.6312 142.152ZM46.6192 138.386L46.6132 136.504L44.6132 136.506L44.6192 138.389L46.6192 138.386ZM46.6072 134.621L46.6012 132.739L44.6012 132.741L44.6072 134.624L46.6072 134.621ZM46.5952 130.856L46.5922 129.915L44.5922 129.917L44.5952 130.858L46.5952 130.856Z" fill="black"/>
<path d="M45.3358 160.392C45.5317 160.587 45.8483 160.586 46.0429 160.391L49.2147 157.205C49.4094 157.009 49.4084 156.693 49.2125 156.498C49.0166 156.303 48.7 156.303 48.5054 156.499L45.686 159.33L42.8485 156.506C42.6527 156.311 42.3361 156.311 42.1414 156.506C41.9468 156.702 41.9478 157.018 42.1437 157.214L45.3358 160.392ZM46.1882 160.037L46.1852 159.096L45.1852 159.097L45.1882 160.038L46.1882 160.037ZM46.1792 157.213L46.1732 155.33L45.1732 155.332L45.1792 157.214L46.1792 157.213ZM46.1672 153.448L46.1612 151.565L45.1612 151.566L45.1672 153.449L46.1672 153.448ZM46.1552 149.683L46.1492 147.8L45.1492 147.801L45.1552 149.684L46.1552 149.683ZM46.1432 145.917L46.1372 144.035L45.1372 144.036L45.1432 145.919L46.1432 145.917ZM46.1312 142.152L46.1252 140.27L45.1252 140.271L45.1312 142.153L46.1312 142.152ZM46.1192 138.387L46.1132 136.504L45.1132 136.506L45.1192 138.388L46.1192 138.387ZM46.1072 134.622L46.1012 132.739L45.1012 132.74L45.1072 134.623L46.1072 134.622ZM46.0952 130.857L46.0922 129.915L45.0922 129.916L45.0952 130.858L46.0952 130.857ZM44.9834 160.746C45.3751 161.136 46.0083 161.135 46.3976 160.744L52.7413 154.372C53.1305 153.981 53.1285 153.348 52.7368 152.958C52.345 152.568 51.7118 152.569 51.3225 152.96L45.6837 158.623L40.0088 152.973C39.6171 152.583 38.9839 152.584 38.5946 152.975C38.2054 153.366 38.2074 153.999 38.5991 154.389L44.9834 160.746ZM46.6882 160.036L46.6852 159.095L44.6852 159.098L44.6882 160.039L46.6882 160.036ZM46.6792 157.212L46.6732 155.33L44.6732 155.332L44.6792 157.215L46.6792 157.212ZM46.6672 153.447L46.6612 151.565L44.6612 151.567L44.6672 153.45L46.6672 153.447ZM46.6552 149.682L46.6492 147.799L44.6492 147.802L44.6552 149.684L46.6552 149.682ZM46.6432 145.917L46.6372 144.034L44.6372 144.037L44.6432 145.919L46.6432 145.917ZM46.6312 142.152L46.6252 140.269L44.6252 140.271L44.6312 142.154L46.6312 142.152ZM46.6192 138.386L46.6132 136.504L44.6132 136.506L44.6192 138.389L46.6192 138.386ZM46.6072 134.621L46.6012 132.739L44.6012 132.741L44.6072 134.624L46.6072 134.621ZM46.5952 130.856L46.5922 129.915L44.5922 129.917L44.5952 130.858L46.5952 130.856Z" fill="black"/>
<line x1="332.788" y1="130.422" x2="45.5923" y2="130.422" stroke="black" stroke-dasharray="2 2"/>
</svg>
