<svg width="463" height="182" viewBox="0 0 463 182" fill="none" xmlns="http://www.w3.org/2000/svg">
<rect x="1" y="73" width="462" height="109" rx="8" fill="black"/>
<path d="M9 67.5H455C459.142 67.5 462.5 70.8579 462.5 75V168C462.5 172.142 459.142 175.5 455 175.5H9.00001C4.85788 175.5 1.5 172.142 1.5 168V75C1.5 70.8579 4.85786 67.5 9 67.5Z" fill="white" stroke="black"/>
<path d="M417.323 102V93.624H419.135V100.524H422.735V102H417.323ZM427.014 102.144C425.894 102.144 425.066 101.764 424.53 101.004C424.002 100.244 423.738 99.18 423.738 97.812C423.738 96.444 424.002 95.38 424.53 94.62C425.066 93.86 425.894 93.48 427.014 93.48C428.134 93.48 428.958 93.86 429.486 94.62C430.022 95.38 430.29 96.444 430.29 97.812C430.29 99.18 430.022 100.244 429.486 101.004C428.958 101.764 428.134 102.144 427.014 102.144ZM427.014 100.692C427.526 100.692 427.878 100.504 428.07 100.128C428.27 99.744 428.37 99.212 428.37 98.532V97.08C428.37 96.408 428.27 95.884 428.07 95.508C427.878 95.124 427.526 94.932 427.014 94.932C426.502 94.932 426.146 95.124 425.946 95.508C425.754 95.884 425.658 96.408 425.658 97.08V98.544C425.658 99.216 425.754 99.744 425.946 100.128C426.146 100.504 426.502 100.692 427.014 100.692ZM435.541 100.812H435.433C435.361 100.988 435.273 101.156 435.169 101.316C435.065 101.476 434.937 101.62 434.785 101.748C434.633 101.868 434.453 101.964 434.245 102.036C434.045 102.108 433.817 102.144 433.561 102.144C433.153 102.144 432.789 102.048 432.469 101.856C432.157 101.664 431.893 101.384 431.677 101.016C431.461 100.648 431.297 100.2 431.185 99.672C431.081 99.144 431.029 98.548 431.029 97.884C431.029 96.46 431.289 95.372 431.809 94.62C432.329 93.86 433.133 93.48 434.221 93.48C434.653 93.48 435.033 93.54 435.361 93.66C435.689 93.772 435.969 93.936 436.201 94.152C436.441 94.36 436.637 94.612 436.789 94.908C436.941 95.204 437.061 95.532 437.149 95.892L435.469 96.3C435.421 96.124 435.365 95.956 435.301 95.796C435.245 95.628 435.169 95.48 435.073 95.352C434.977 95.224 434.857 95.124 434.713 95.052C434.569 94.972 434.393 94.932 434.185 94.932C433.729 94.932 433.405 95.12 433.213 95.496C433.029 95.872 432.937 96.4 432.937 97.08V98.448C432.937 99.128 433.037 99.672 433.237 100.08C433.445 100.488 433.809 100.692 434.329 100.692C434.737 100.692 435.041 100.572 435.241 100.332C435.441 100.092 435.541 99.784 435.541 99.408V98.796H434.113V97.524H437.149V102H435.541V100.812ZM441.273 102.144C440.569 102.144 439.957 102.028 439.437 101.796C438.917 101.564 438.497 101.248 438.177 100.848L439.221 99.696C439.525 100.032 439.857 100.28 440.217 100.44C440.585 100.6 440.957 100.68 441.333 100.68C441.765 100.68 442.093 100.584 442.317 100.392C442.541 100.2 442.653 99.924 442.653 99.564C442.653 99.268 442.565 99.044 442.389 98.892C442.221 98.74 441.933 98.632 441.525 98.568L440.649 98.424C439.897 98.296 439.353 98.02 439.017 97.596C438.681 97.164 438.513 96.64 438.513 96.024C438.513 95.216 438.777 94.592 439.305 94.152C439.833 93.704 440.573 93.48 441.525 93.48C442.173 93.48 442.737 93.58 443.217 93.78C443.697 93.98 444.085 94.252 444.381 94.596L443.361 95.736C443.137 95.488 442.873 95.296 442.569 95.16C442.265 95.016 441.921 94.944 441.537 94.944C440.729 94.944 440.325 95.276 440.325 95.94C440.325 96.228 440.413 96.444 440.589 96.588C440.773 96.732 441.069 96.84 441.477 96.912L442.353 97.068C443.033 97.188 443.557 97.444 443.925 97.836C444.293 98.228 444.477 98.756 444.477 99.42C444.477 99.812 444.409 100.176 444.273 100.512C444.137 100.84 443.933 101.128 443.661 101.376C443.389 101.616 443.053 101.804 442.653 101.94C442.261 102.076 441.801 102.144 441.273 102.144Z" fill="black"/>
<path d="M4.43976 38.3569C4.43976 36.8245 5.68206 35.5822 7.21452 35.5822V35.5822C8.74697 35.5822 9.98927 36.8245 9.98927 38.3569L9.98927 47.8984C9.98927 49.4309 8.74697 50.6732 7.21452 50.6732V50.6732C5.68206 50.6732 4.43976 49.4309 4.43976 47.8984L4.43976 38.3569Z" fill="#3F3FE9" fill-opacity="0.8"/>
<path d="M27.1928 34.092C27.1928 32.5596 28.4351 31.3173 29.9676 31.3173V31.3173C31.5 31.3173 32.7423 32.5596 32.7423 34.092L32.7423 47.8984C32.7423 49.4309 31.5 50.6732 29.9676 50.6732V50.6732C28.4351 50.6732 27.1928 49.4309 27.1928 47.8984L27.1928 34.092Z" fill="#3F3FE9" fill-opacity="0.8"/>
<path d="M49.391 34.092C49.391 32.5596 50.6333 31.3173 52.1657 31.3173V31.3173C53.6982 31.3173 54.9405 32.5596 54.9405 34.092L54.9405 47.8984C54.9405 49.4309 53.6982 50.6732 52.1657 50.6732V50.6732C50.6333 50.6732 49.391 49.4309 49.391 47.8984L49.391 34.092Z" fill="#3F3FE9" fill-opacity="0.8"/>
<path d="M71.5884 22.6097C71.5884 21.0773 72.8307 19.835 74.3632 19.835V19.835C75.8957 19.835 77.138 21.0773 77.138 22.6097L77.138 47.8984C77.138 49.4309 75.8957 50.6732 74.3632 50.6732V50.6732C72.8307 50.6732 71.5884 49.4309 71.5884 47.8984L71.5884 22.6097Z" fill="#3F3FE9" fill-opacity="0.8"/>
<path d="M93.7866 18.6729C93.7866 17.1405 95.0289 15.8982 96.5614 15.8982V15.8982C98.0938 15.8982 99.3361 17.1405 99.3361 18.673L99.3361 47.8984C99.3361 49.4309 98.0938 50.6732 96.5614 50.6732V50.6732C95.0289 50.6732 93.7866 49.4309 93.7866 47.8984L93.7866 18.6729Z" fill="#3F3FE9" fill-opacity="0.8"/>
<path d="M117.649 26.5465C117.649 25.014 118.892 23.7717 120.424 23.7717V23.7717C121.957 23.7717 123.199 25.014 123.199 26.5465L123.199 47.8984C123.199 49.4308 121.957 50.6731 120.424 50.6731V50.6731C118.892 50.6731 117.649 49.4308 117.649 47.8984L117.649 26.5465Z" fill="#3F3FE9" fill-opacity="0.8"/>
<path d="M139.206 22.4005C139.183 20.8957 140.385 19.6686 141.89 19.6597V19.6597C143.394 19.6507 144.633 20.8633 144.656 22.368L145.042 47.8151C145.065 49.3199 143.864 50.547 142.359 50.5559V50.5559C140.854 50.5649 139.615 49.3523 139.593 47.8476L139.206 22.4005Z" fill="#3F3FE9" fill-opacity="0.8"/>
<path d="M162.697 38.2059C162.697 36.6735 163.939 35.4312 165.471 35.4312V35.4312C167.004 35.4312 168.246 36.6735 168.246 38.2059L168.246 47.7474C168.246 49.2799 167.004 50.5222 165.471 50.5222V50.5222C163.939 50.5222 162.697 49.2799 162.697 47.7474L162.697 38.2059Z" fill="#3F3FE9" fill-opacity="0.8"/>
<path d="M185.45 33.9411C185.45 32.4087 186.692 31.1664 188.224 31.1664V31.1664C189.757 31.1664 190.999 32.4087 190.999 33.9411L190.999 47.7475C190.999 49.28 189.757 50.5223 188.224 50.5223V50.5223C186.692 50.5223 185.45 49.28 185.45 47.7475L185.45 33.9411Z" fill="#3F3FE9" fill-opacity="0.8"/>
<path d="M207.648 33.9411C207.648 32.4087 208.89 31.1664 210.423 31.1664V31.1664C211.955 31.1664 213.197 32.4087 213.197 33.9411L213.197 47.7475C213.197 49.28 211.955 50.5223 210.423 50.5223V50.5223C208.89 50.5223 207.648 49.28 207.648 47.7475L207.648 33.9411Z" fill="#3F3FE9" fill-opacity="0.8"/>
<path d="M229.845 22.4588C229.845 20.9264 231.088 19.6841 232.62 19.6841V19.6841C234.152 19.6841 235.395 20.9264 235.395 22.4588L235.395 47.7475C235.395 49.28 234.152 50.5223 232.62 50.5223V50.5223C231.088 50.5223 229.845 49.28 229.845 47.7475L229.845 22.4588Z" fill="#3F3FE9" fill-opacity="0.8"/>
<path d="M252.043 18.5221C252.043 16.9896 253.286 15.7473 254.818 15.7473V15.7473C256.351 15.7473 257.593 16.9896 257.593 18.5221L257.593 47.7476C257.593 49.28 256.351 50.5223 254.818 50.5223V50.5223C253.286 50.5223 252.043 49.28 252.043 47.7476L252.043 18.5221Z" fill="#3F3FE9" fill-opacity="0.8"/>
<path d="M275.906 26.3956C275.906 24.8631 277.149 23.6208 278.681 23.6208V23.6208C280.213 23.6208 281.456 24.8632 281.456 26.3956L281.456 47.7475C281.456 49.28 280.213 50.5223 278.681 50.5223V50.5223C277.149 50.5223 275.906 49.28 275.906 47.7475L275.906 26.3956Z" fill="#3F3FE9" fill-opacity="0.8"/>
<path d="M297.463 22.2495C297.44 20.7447 298.641 19.5176 300.146 19.5087V19.5087C301.651 19.4997 302.89 20.7123 302.913 22.217L303.299 47.6641C303.322 49.1689 302.121 50.396 300.616 50.4049V50.4049C299.111 50.4139 297.872 49.2013 297.849 47.6966L297.463 22.2495Z" fill="#3F3FE9" fill-opacity="0.8"/>
<path d="M457.245 38.2059C457.245 36.6735 456.002 35.4312 454.47 35.4312V35.4312C452.937 35.4312 451.695 36.6735 451.695 38.2059L451.695 47.7474C451.695 49.2799 452.937 50.5222 454.47 50.5222V50.5222C456.002 50.5222 457.245 49.2799 457.245 47.7474L457.245 38.2059Z" fill="#3F3FE9" fill-opacity="0.8"/>
<path d="M434.492 33.9411C434.492 32.4087 433.249 31.1664 431.717 31.1664V31.1664C430.184 31.1664 428.942 32.4087 428.942 33.9411L428.942 47.7475C428.942 49.28 430.184 50.5223 431.717 50.5223V50.5223C433.249 50.5223 434.492 49.28 434.492 47.7475L434.492 33.9411Z" fill="#3F3FE9" fill-opacity="0.8"/>
<path d="M412.293 33.9411C412.293 32.4087 411.051 31.1664 409.519 31.1664V31.1664C407.986 31.1664 406.744 32.4087 406.744 33.9411L406.744 47.7475C406.744 49.28 407.986 50.5223 409.519 50.5223V50.5223C411.051 50.5223 412.293 49.28 412.293 47.7475L412.293 33.9411Z" fill="#3F3FE9" fill-opacity="0.8"/>
<path d="M390.096 22.4588C390.096 20.9264 388.854 19.6841 387.321 19.6841V19.6841C385.789 19.6841 384.547 20.9264 384.547 22.4588L384.547 47.7475C384.547 49.28 385.789 50.5223 387.321 50.5223V50.5223C388.854 50.5223 390.096 49.28 390.096 47.7475L390.096 22.4588Z" fill="#3F3FE9" fill-opacity="0.8"/>
<path d="M367.898 18.5221C367.898 16.9896 366.656 15.7473 365.123 15.7473V15.7473C363.591 15.7473 362.348 16.9896 362.348 18.5221L362.348 47.7476C362.348 49.28 363.591 50.5223 365.123 50.5223V50.5223C366.656 50.5223 367.898 49.28 367.898 47.7476L367.898 18.5221Z" fill="#3F3FE9" fill-opacity="0.8"/>
<path d="M344.035 26.3956C344.035 24.8631 342.793 23.6208 341.26 23.6208V23.6208C339.728 23.6208 338.486 24.8632 338.486 26.3956L338.486 47.7475C338.486 49.28 339.728 50.5223 341.26 50.5223V50.5223C342.793 50.5223 344.035 49.28 344.035 47.7475L344.035 26.3956Z" fill="#3F3FE9" fill-opacity="0.8"/>
<path d="M322.478 22.2495C322.501 20.7447 321.3 19.5176 319.795 19.5087V19.5087C318.29 19.4997 317.052 20.7123 317.029 22.217L316.642 47.6641C316.619 49.1689 317.821 50.396 319.326 50.4049V50.4049C320.831 50.4139 322.069 49.2013 322.092 47.6966L322.478 22.2495Z" fill="#3F3FE9" fill-opacity="0.8"/>
</svg>
