<svg width="90" height="67" viewBox="0 0 90 67" fill="none" xmlns="http://www.w3.org/2000/svg">
<rect y="41" width="90" height="26" rx="8" fill="#EFF1F8"/>
<rect x="0.5" y="0.5" width="89" height="62" rx="7.5" fill="white" stroke="#EFF1F8"/>
<path d="M25.5056 35L25.0156 33.23H22.9456L22.4656 35H21.1456L23.1056 28.02H24.9256L26.8956 35H25.5056ZM24.0256 29.31H23.9456L23.1756 32.16H24.7956L24.0256 29.31ZM27.8117 35V28.02H30.4617C31.1417 28.02 31.6617 28.2133 32.0217 28.6C32.3817 28.9867 32.5617 29.5133 32.5617 30.18C32.5617 30.8467 32.3817 31.3733 32.0217 31.76C31.6617 32.1467 31.1417 32.34 30.4617 32.34H29.1217V35H27.8117ZM29.1217 31.27H30.1917C30.5451 31.27 30.7984 31.2 30.9517 31.06C31.1051 30.9133 31.1817 30.6833 31.1817 30.37V29.99C31.1817 29.6767 31.1051 29.45 30.9517 29.31C30.7984 29.1633 30.5451 29.09 30.1917 29.09H29.1217V31.27ZM33.7878 35V34.02H35.3578V29H33.7878V28.02H38.2278V29H36.6578V34.02H38.2278V35H33.7878ZM47.77 31.94L47.04 32.9V35H45.73V28.02H47.04V31.16H47.1L47.91 30L49.38 28.02H50.86L48.67 30.96L50.96 35H49.48L47.77 31.94ZM51.8261 35V28.02H56.2361V29.1H53.1361V30.92H56.1261V32H53.1361V33.92H56.2361V35H51.8261ZM59.3422 35V32.45L57.0722 28.02H58.5322L59.3422 29.7L59.9722 31.13H60.0422L60.6822 29.7L61.5022 28.02H62.9122L60.6422 32.45V35H59.3422ZM65.9083 35.12C65.3083 35.12 64.7949 35.0167 64.3683 34.81C63.9483 34.6033 63.6049 34.33 63.3383 33.99L64.1283 33.17C64.3883 33.47 64.6683 33.6933 64.9683 33.84C65.2749 33.98 65.6016 34.05 65.9483 34.05C66.3483 34.05 66.6549 33.96 66.8683 33.78C67.0816 33.6 67.1883 33.34 67.1883 33C67.1883 32.72 67.1083 32.51 66.9483 32.37C66.7883 32.2233 66.5183 32.12 66.1383 32.06L65.3983 31.94C64.7516 31.8267 64.2916 31.5933 64.0183 31.24C63.7449 30.88 63.6083 30.4567 63.6083 29.97C63.6083 29.3033 63.8249 28.7933 64.2583 28.44C64.6916 28.08 65.2916 27.9 66.0583 27.9C66.6049 27.9 67.0749 27.9867 67.4683 28.16C67.8683 28.3333 68.1883 28.57 68.4283 28.87L67.6583 29.69C67.4716 29.47 67.2483 29.2967 66.9883 29.17C66.7283 29.0367 66.4216 28.97 66.0683 28.97C65.3083 28.97 64.9283 29.2833 64.9283 29.91C64.9283 30.1767 65.0083 30.38 65.1683 30.52C65.3283 30.66 65.6016 30.7633 65.9883 30.83L66.7183 30.96C67.3249 31.0733 67.7749 31.2967 68.0683 31.63C68.3616 31.9633 68.5083 32.39 68.5083 32.91C68.5083 33.2367 68.4516 33.5367 68.3383 33.81C68.2249 34.0767 68.0583 34.31 67.8383 34.51C67.6183 34.7033 67.3449 34.8533 67.0183 34.96C66.6983 35.0667 66.3283 35.12 65.9083 35.12Z" fill="#EFF1F8"/>
</svg>
